<?xml version="1.0" encoding="UTF-8"?>
<svg width="900" height="600" viewBox="0 0 900 600" fill="none" xmlns="http://www.w3.org/2000/svg">
  <path d="M450 600C697.812 600 900 465.685 900 300C900 134.315 697.812 0 450 0C202.188 0 0 134.315 0 300C0 465.685 202.188 600 450 600Z" fill="white" fill-opacity="0.1"/>
  <path d="M451 500C615.312 500 750 403.812 750 285C750 166.188 615.312 70 451 70C286.688 70 152 166.188 152 285C152 403.812 286.688 500 451 500Z" fill="white" fill-opacity="0.1"/>
  <path d="M450 400C533.548 400 600 342.548 600 270C600 197.452 533.548 140 450 140C366.452 140 300 197.452 300 270C300 342.548 366.452 400 450 400Z" fill="white" fill-opacity="0.1"/>
</svg>
